<svg width="1024" height="1024" viewBox="0 0 1024 1024" fill="none" xmlns="http://www.w3.org/2000/svg">
<rect width="1024" height="1024" fill="white"/>
<path fill-rule="evenodd" clip-rule="evenodd" d="M512 153.6L829.44 313.01V710.988L512 870.4L194.56 710.988V313.01L512 153.6ZM305.284 345.3C285.396 355.288 272.833 375.703 272.833 398.035V625.964C272.833 648.296 285.396 668.711 305.284 678.699L333.713 692.975V480.061C333.713 420.507 367.214 366.066 420.249 339.433L563.641 267.425L538.255 254.676C521.728 246.377 502.273 246.377 485.746 254.676L305.284 345.3ZM485.746 769.324L434.679 743.677C420.771 736.695 411.986 722.417 411.986 706.801V641.11L603.754 544.81C656.788 518.176 690.289 463.734 690.289 404.182V331.024L718.717 345.3C738.604 355.288 751.168 375.703 751.168 398.035V625.964C751.168 648.296 738.604 668.711 718.717 678.699L538.255 769.324C521.728 777.623 502.273 777.623 485.746 769.324ZM612.017 331.025V404.182C612.017 433.958 595.266 461.18 568.747 474.495L411.986 553.217V480.061C411.986 450.283 428.737 423.063 455.254 409.746L612.017 331.025Z" fill="black"/>
</svg>
